<?xml version="1.0" standalone="no"?>
<!DOCTYPE svg PUBLIC "-//W3C//DTD SVG 1.1//EN" "http://www.w3.org/Graphics/SVG/1.1/DTD/svg11.dtd" >
<svg xmlns="http://www.w3.org/2000/svg">
<metadata>Generated by IcoMoon</metadata>
<defs>
<font id="notificationfeed" horiz-adv-x="1024">
<font-face units-per-em="1024" ascent="960" descent="-64" />
<missing-glyph horiz-adv-x="1024" />
<glyph unicode="&#x20;" horiz-adv-x="512" d="" />
<glyph unicode="&#xe900;" glyph-name="reverse" d="M656.043 538.112l46.763-48.469c22.869-23.893 22.869-62.464 0-86.357s-60.416-23.893-83.285 0l-147.456 152.917c-22.869 23.893-22.869 62.464 0 86.357l147.456 152.917c22.869 23.893 60.416 23.893 83.285 0s22.869-62.464 0-86.357l-46.763-48.469h49.152c154.624 0 280.235-130.048 280.235-290.475s-125.611-290.475-280.235-290.475h-382.976c-154.965 0-280.235 130.048-280.235 290.475 0 138.581 94.549 257.365 224.256 284.672 32.085 6.827 63.147-14.677 69.632-47.787s-13.995-65.536-46.080-72.021c-74.752-15.701-129.707-84.651-129.707-164.864 0-92.843 72.363-168.277 162.133-168.277h383.317c89.429 0 162.133 75.435 162.133 168.277s-72.704 168.277-162.475 168.277h-49.152z" />
<glyph unicode="&#xe901;" glyph-name="date" d="M116.053 56.832c0-44.032 35.499-80.213 78.848-80.213h634.539c43.349 0 78.848 36.181 78.848 80.213v583.68h-792.235v-583.68zM157.696 598.187h708.949v-541.696c0-20.821-16.725-37.888-37.205-37.888h-634.539c-20.48 0-37.205 17.067-37.205 37.888v541.696zM845.141 834.048v-51.541c4.437-7.168 6.827-15.701 6.827-24.576 0-25.941-20.821-47.104-46.080-47.104-25.6 0-46.080 21.163-46.080 47.104 0 8.875 2.389 17.408 6.827 24.576v51.541h-46.763v-51.541c4.437-7.168 6.827-15.701 6.827-24.576 0-25.941-20.821-47.104-46.080-47.104-25.6 0-46.080 21.163-46.080 47.104 0 8.875 2.389 17.408 6.827 24.576v51.541h-258.731v-51.541c4.437-7.168 6.827-15.701 6.827-24.576 0-25.941-20.821-47.104-46.080-47.104-25.6 0-46.080 21.163-46.080 47.104 0 8.875 2.389 17.408 6.827 24.576v51.541h-46.763v-51.541c4.437-7.168 6.827-15.701 6.827-24.576 0-25.941-20.821-47.104-46.080-47.104-25.6 0-46.080 21.163-46.080 47.104 0 8.875 2.389 17.408 6.827 24.576v51.541h-62.805v-162.816h791.893v162.816h-62.805zM320.853 543.232h-82.603v-83.968h82.603v83.968zM320.853 157.867h-82.603v-83.968h82.603v83.968zM629.76 157.867h-82.603v-83.968h82.603v83.968zM475.819 157.867h-82.603v-83.968h82.603v83.968zM320.853 286.208h-82.603v-83.968h82.603v83.968zM629.76 286.208h-82.603v-83.968h82.603v83.968zM475.819 286.208h-82.603v-83.968h82.603v83.968zM320.853 414.891h-82.603v-83.968h82.603v83.968zM629.76 414.891h-82.603v-83.968h82.603v83.968zM475.819 414.891h-82.603v-83.968h82.603v83.968zM629.76 543.232h-82.603v-83.968h82.603v83.968zM779.947 157.867h-82.603v-83.968h82.603v83.968zM779.947 286.208h-82.603v-83.968h82.603v83.968zM779.947 414.891h-82.603v-83.968h82.603v83.968zM779.947 543.232h-82.603v-83.968h82.603v83.968zM475.819 543.232h-82.603v-83.968h82.603v83.968zM218.112 738.133v0c10.581 0 19.115 8.533 19.115 19.456v142.336c0 10.581-8.533 19.456-19.115 19.456v0c-10.581 0-19.115-8.533-19.115-19.456v-142.677c0-10.581 8.533-19.115 19.115-19.115zM343.381 738.133c10.581 0 19.115 8.533 19.115 19.456v142.336c0 10.581-8.533 19.456-19.115 19.456s-19.115-8.533-19.115-19.456v-142.677c0-10.581 8.533-19.115 19.115-19.115zM680.619 738.133c10.581 0 19.115 8.533 19.115 19.456v142.336c0 10.581-8.533 19.456-19.115 19.456s-19.115-8.533-19.115-19.456v-142.677c0-10.581 8.533-19.115 19.115-19.115zM805.888 738.133c10.581 0 19.115 8.533 19.115 19.456v142.336c0 10.581-8.533 19.456-19.115 19.456s-19.115-8.533-19.115-19.456v-142.677c0.341-10.581 8.875-19.115 19.115-19.115z" />
<glyph unicode="&#xe902;" glyph-name="refresh" d="M912.043 475.648l-86.357 53.589c31.403-134.485-20.821-276.48-136.875-365.227-149.163-113.664-368.299-106.155-507.563 14.336-3.755 2.048-27.989 24.576-58.368 69.973-25.941 40.619-37.547 75.435-37.547 75.435-57.344 146.091-6.485 310.272 122.88 408.576 127.317 94.549 302.080 105.813 437.589 32.768 24.917-13.312 48.469-28.672 69.973-47.445 12.971-11.947 13.653-31.403 1.024-43.691s-33.451-12.971-46.421-1.365c-115.712 100.693-295.595 106.496-419.499 12.629-108.544-80.555-149.504-216.747-101.717-340.992 0 0 9.899-29.355 30.379-61.781 25.259-37.547 46.763-56.32 46.763-56.32 115.712-100.693 295.595-106.496 419.499-12.629 101.376 77.483 144.384 200.363 109.909 317.44l-69.973-96.597c-10.923-13.312-30.72-17.067-46.080-8.875-13.995 9.899-19.797 29.696-8.875 43.008l109.227 152.235c10.923 13.312 29.013 18.091 44.032 9.899l2.048-1.024 161.109-101.376c13.995-9.899 19.797-29.696 8.875-43.008-6.827-15.36-30.037-19.797-44.032-9.557v0z" />
<glyph unicode="&#xe903;" glyph-name="group" d="M891.904 525.824c-23.893 27.989-63.829 51.883-115.371 67.584 0 4.096-4.096 4.096-4.096 4.096 4.096 0 4.096 4.096 7.851 7.851 35.84 47.787 51.883 95.573 47.787 139.264-4.096 27.989-19.797 51.883-43.691 71.68-39.936 31.744-99.669 31.744-139.264 0-23.893-16.043-39.936-43.691-43.691-71.68-7.851-43.691 7.851-91.477 47.787-139.264 7.851-7.851 19.797-11.947 27.989-4.096s11.947 19.797 4.096 27.989c-27.989 39.936-43.691 75.435-39.936 107.52 4.096 19.797 11.947 35.84 27.989 47.787 23.893 19.797 63.829 19.797 91.477 0 16.043-11.947 23.893-27.989 27.989-47.787 4.096-31.744-11.947-67.584-39.936-107.52-11.947-7.851-19.797-19.797-19.797-35.84 4.096-11.947 11.947-23.893 23.893-31.744 4.096 0 4.096-4.096 7.851-4.096 47.787-16.043 83.627-31.744 103.424-55.637 4.096-7.851 7.851-16.043 7.851-23.893s-4.096-19.797-11.947-23.893c-7.851-4.096-16.043-7.851-27.989-11.947-19.797-4.096-39.936-7.851-59.733-7.851h-83.627c-11.947 0-19.797-7.851-19.797-19.797s7.851-19.797 19.797-19.797h83.627c23.893 0 47.787 4.096 71.68 4.096 16.043 4.096 27.989 11.947 39.936 19.797 16.043 11.947 27.989 31.744 27.989 55.637-0.341 19.797-8.192 39.595-20.139 51.541zM338.603 394.752c11.947 0 19.797 7.851 19.797 19.797s-7.851 19.797-19.797 19.797h-83.627c-19.797 0-39.936 4.096-55.637 11.947-11.947 4.096-19.797 7.851-27.989 11.947-7.851 4.096-11.947 11.947-11.947 23.893 0 7.851 4.096 16.043 7.851 23.893 23.893 23.893 55.637 39.936 99.669 59.733 4.096 0 7.851 4.096 7.851 4.096 11.947 7.851 23.893 16.043 23.893 31.744 4.096 11.947-7.851 23.893-16.043 35.84-27.648 39.595-43.691 75.435-39.595 107.179 0 16.043 11.947 31.744 27.989 43.691 27.989 19.797 63.829 19.797 91.477 0 16.043-11.947 27.989-27.989 27.989-47.787 4.096-27.989-7.851-67.584-39.936-107.52-7.851-7.851-4.096-19.797 4.096-27.989 7.851-4.096 19.797-4.096 27.989 4.096 35.84 47.787 51.883 95.573 47.787 139.264-4.096 27.989-19.797 51.883-43.691 71.68-39.936 31.744-99.669 31.744-139.264 0-23.893-16.043-39.936-43.691-43.691-71.68-7.851-39.936 11.947-91.477 51.883-139.264 0-4.096 4.096-7.851 4.096-7.851 0-4.096-4.096-4.096-4.096-4.096-51.883-16.043-91.477-35.84-119.467-63.829-11.947-16.043-19.797-31.744-19.797-51.883 0-19.797 11.947-43.691 27.989-55.637 11.947-7.851 23.893-16.043 39.936-19.797 19.797-7.851 43.691-11.947 71.68-11.947h82.603zM593.237 311.125c-4.096 4.096-11.947 7.851-11.947 7.851s0 4.096 11.947 16.043c47.787 63.829 71.68 127.317 63.829 182.955-4.096 35.84-23.893 67.584-55.637 91.477-47.787 35.84-127.317 35.84-179.2 0-31.744-23.893-47.787-55.637-55.637-91.477-7.851-55.637 16.043-115.371 67.584-182.955 7.851-7.851 11.947-11.947 11.947-11.947-4.096-4.096-7.851-7.851-11.947-11.947-71.68-23.893-123.563-51.883-155.307-87.381-16.043-19.797-23.893-39.936-23.893-63.829 0-27.989 11.947-55.637 35.84-67.584 11.947-11.947 27.989-19.797 47.787-27.989 27.989-11.947 59.733-16.043 95.573-16.043h163.157c31.744 0 63.829 4.096 95.573 11.947 19.797 7.851 35.84 16.043 47.787 27.989 19.797 16.043 31.744 43.691 31.744 71.68 0 23.893-7.851 47.787-23.893 63.829-31.744 35.499-83.627 63.488-155.307 87.381zM716.8 119.979c-11.947-7.851-23.893-16.043-39.936-19.797-23.893-7.851-51.883-11.947-79.531-11.947h-163.157c-27.989 0-55.637 4.096-79.531 11.947-16.043 4.096-31.744 11.947-39.936 19.797-11.947 7.851-19.797 23.893-19.797 39.936 0 11.947 4.096 27.989 7.851 35.84 31.744 31.744 75.776 59.733 143.36 79.531 4.096 0 7.851 4.096 7.851 4.096 11.947 11.947 27.989 23.893 27.989 39.936 4.096 19.797-7.851 31.744-19.797 43.691-39.936 55.637-59.733 107.52-55.637 151.211 4.096 27.989 16.043 51.883 39.936 67.584 19.797 11.947 43.691 19.797 67.584 19.797s47.787-7.851 67.584-19.797c23.893-19.797 35.84-39.936 39.936-67.584 4.096-43.691-16.043-99.328-55.637-151.211-11.947-11.947-23.893-27.989-23.893-43.691s16.043-27.989 27.989-39.936c4.096 0 4.096-4.096 7.851-4.096 67.584-23.893 115.371-47.787 143.36-79.531 11.947-7.851 16.043-23.893 16.043-35.84-0.683-16.043-8.533-32.085-20.48-39.936z" />
<glyph unicode="&#xe904;" glyph-name="logout" d="M849.237 716.288c-72.704 73.387-168.619 110.251-264.192 110.251s-191.147-36.864-264.192-110.251c-11.264-11.264-11.264-29.696 0-40.96s29.355-11.264 40.619 0c123.221 124.245 323.925 124.245 447.147 0 59.733-60.416 92.501-140.288 92.501-225.621s-32.768-165.205-92.501-225.621c-59.733-60.416-139.264-93.525-223.573-93.525s-163.84 33.109-223.573 93.525c-11.264 11.264-29.355 11.264-40.619 0s-11.264-29.696 0-40.96c70.656-70.997 164.523-110.251 264.192-110.251s193.536 39.253 264.192 110.251c70.656 70.997 109.568 165.888 109.568 266.581s-38.912 195.243-109.568 266.581zM166.571 421.035h418.475c15.701 0 28.672 12.971 28.672 29.013s-12.971 29.013-28.672 29.013h-418.475l73.045 73.728c11.264 11.264 11.264 29.696 0 40.96-5.461 5.803-12.971 8.533-20.139 8.533s-14.677-2.731-20.139-8.533l-121.856-122.88c0 0 0 0 0 0-0.341-0.341-0.341-0.341-0.341-0.683-10.581-11.264-10.581-28.672 0-39.595 0.341-0.341 0.341-0.341 0.683-0.683 0 0 0 0 0 0l121.856-122.88c11.264-11.264 29.355-11.264 40.619 0s11.264 29.696 0 40.96l-73.728 73.045z" />
<glyph unicode="&#xe905;" glyph-name="upload" d="M920.917 490.667c-25.259 0-45.056-19.456-45.056-42.667v-366.592h-727.723v366.592c0 24.235-19.797 42.667-45.056 42.667s-45.056-19.456-45.056-42.667v-408.576c0-24.235 20.48-42.667 45.056-42.667h816.469c24.235 0 44.032 19.456 46.080 42.667v408.576c0.341 23.893-19.456 42.667-44.715 42.667zM336.896 639.147c12.288 0 23.552 4.779 32.085 12.971l95.573 93.867v-441.003c0-25.941 20.48-46.421 46.763-46.421s47.104 20.48 47.104 46.421v442.709l96.597-95.573c16.725-16.725 45.056-16.725 62.805 0 8.533 8.192 13.312 19.456 13.312 30.72 0 11.947-4.779 23.211-13.312 31.403l-173.739 171.691c-16.725 16.725-45.056 16.725-62.805 0l-175.445-171.691c-8.533-8.192-12.971-19.456-12.971-31.403s4.779-22.187 12.971-30.72c8.533-8.192 19.797-12.971 31.061-12.971z" />
<glyph unicode="&#xe906;" glyph-name="arrowDown" d="M513.707 198.827c16.043 0 32.085 6.144 44.373 18.091l375.808 372.053c24.576 24.235 24.576 63.488 0 87.723s-64.171 24.235-88.747 0l-331.776-328.021-331.435 328.021c-24.576 24.235-64.171 24.235-88.747 0s-24.576-63.488 0-87.723l375.808-372.053c12.629-11.947 28.672-18.091 44.715-18.091z" />
<glyph unicode="&#xe907;" glyph-name="search" d="M744.448 264.704c56.32 66.901 90.112 152.576 90.112 246.443 0 212.651-174.763 385.365-390.144 385.365s-389.803-172.715-389.803-385.365 174.763-385.365 390.144-385.365c94.891 0 182.272 33.451 249.856 89.429l221.525-218.795 50.176 49.493-221.867 218.795zM444.757 195.755c-176.128 0-319.147 140.971-319.147 315.392 0 174.080 143.019 315.392 319.147 315.392 176.469 0 319.147-140.971 319.147-315.392 0-174.080-143.019-315.392-319.147-315.392zM249.515 511.147h-35.499c0.341-125.611 103.424-227.328 230.4-227.669v34.816c-107.52 0.341-194.56 86.357-194.901 192.853z" />
<glyph unicode="&#xe908;" glyph-name="logo" d="M512 913.92c-263.509 0-477.525-213.675-477.525-477.525 0-136.875 58.368-259.413 149.845-347.136 77.824-74.752 166.912-107.179 275.456-107.179 115.029 0 165.547 37.888 171.349 60.075 6.144 22.528-12.288 46.763-103.765 63.147s-422.229 30.72-417.451 325.632c4.096 254.635 268.629 305.493 390.485 305.493 85.675 0 209.92-6.144 401.408-128.341l-152.576-201.728c0 0-116.053 67.243-201.728 83.627-85.333 16.384-148.48 0-150.528-32.427s54.955-40.619 99.669-50.859c44.715-10.24 197.632-34.133 276.821-83.285 53.589-33.109 111.616-77.141 136.875-149.504 49.835 75.435 78.848 165.547 78.848 262.485 0.341 263.851-213.675 477.525-477.184 477.525zM734.891 273.92c-27.307 0-49.152-22.187-49.152-49.152 0-27.307 22.187-49.152 49.152-49.152 27.307 0 49.152 22.187 49.152 49.152 0.341 26.965-21.845 49.152-49.152 49.152zM758.443 134.997h-47.445c-17.749 0-27.989-14.336-27.989-31.744v-110.592c39.595 14.677 79.189 33.451 103.083 56.32v54.613c0.341 17.067-9.899 31.403-27.648 31.403z" />
<glyph unicode="&#xe909;" glyph-name="json" d="M807.936 679.424l-208.896 197.291c-16.043 16.043-38.571 24.235-61.099 24.235h-240.981c-83.627 0-152.576-69.632-152.576-153.6v-598.699c0-84.309 68.949-153.6 152.576-153.6h385.707c83.627 0 152.576 69.632 152.576 153.6v465.92c0 24.235-9.557 48.811-27.307 64.853zM587.776 820.053l162.133-153.6h-121.856c-22.528 0-40.277 17.749-40.277 40.619v112.981zM787.115 614.571v-465.92c0-58.368-46.763-105.131-104.448-105.131h-385.707c-57.685 0-104.448 46.763-104.448 105.131v598.699c0 58.368 46.763 105.131 104.448 105.131h242.688v-145.749c0-48.469 40.277-89.088 88.405-89.088h159.061c0-1.365 0-3.072 0-3.072zM279.211 332.971c-11.264 0-19.115-9.557-19.115-19.456 0-11.264 9.557-19.456 19.115-19.456s19.115 9.557 19.115 19.456c0.341 11.605-7.851 19.456-19.115 19.456zM343.723 444.928c-9.557 0-17.749-8.192-17.749-17.749s8.192-19.456 17.749-19.456c9.557 0 19.115 8.192 19.115 19.456 0 9.557-8.192 17.749-19.115 17.749zM327.339 297.472c0-11.264-4.779-16.043-12.971-16.043-6.485 0-9.557 1.707-12.971 4.779l-8.192-24.235c8.192-4.779 12.971-6.485 27.307-6.485 27.307 0 38.571 17.749 38.571 41.984v100.352h-32.085v-100.352zM409.6 368.811c0 3.072 4.779 6.485 12.971 6.485 12.971 0 24.235-4.779 29.013-11.264l12.971 22.528c-11.264 8.192-25.6 12.971-41.643 12.971-27.307 0-43.349-16.043-43.349-34.133 0-40.619 59.392-27.648 59.392-40.619 0-4.779-3.072-6.485-12.971-6.485-11.264 0-27.307 6.485-35.499 12.971l-12.971-22.528c11.264-9.557 29.013-16.043 48.128-16.043 29.013 0 45.056 14.677 45.056 34.133-3.413 41.984-61.099 30.72-61.099 41.984zM533.163 401.237c-33.792 0-54.613-24.235-54.613-53.248s20.821-53.248 54.613-53.248c35.499 0 54.613 24.235 54.613 53.248 0 27.307-20.821 53.248-54.613 53.248zM533.163 321.707c-14.336 0-22.528 11.264-22.528 24.235s8.192 24.235 22.528 24.235c14.336 0 22.528-11.264 22.528-24.235-1.707-12.971-9.557-24.235-22.528-24.235zM603.819 399.531v-102.059h32.085v66.219c3.072 4.779 9.557 9.557 19.115 9.557s16.043-4.779 16.043-16.043v-58.368h32.085v71.339c1.707 16.043-8.192 30.72-32.085 30.72-17.749 0-29.013-8.192-35.499-14.677v12.971h-31.744z" />
<glyph unicode="&#xe90a;" glyph-name="xml" d="M820.565 679.424l-208.896 197.291c-16.043 16.043-38.571 24.235-61.099 24.235h-240.981c-83.627 0-152.576-69.632-152.576-153.6v-598.699c0-84.309 68.949-153.6 152.576-153.6h385.707c83.627 0 152.576 69.632 152.576 153.6v465.92c0 24.235-9.557 48.811-27.307 64.853zM600.405 820.053l162.133-153.6h-122.197c-22.528 0-40.277 17.749-40.277 40.619v112.981zM799.744 614.571v-465.92c0-58.368-46.763-105.131-104.448-105.131h-385.707c-57.685 0-104.448 46.763-104.448 105.131v598.699c0 58.368 46.763 105.131 104.448 105.131h242.688v-145.749c0-48.469 40.277-89.088 88.405-89.088h159.061c0-1.365 0-3.072 0-3.072zM315.051 156.16c-11.947 0-20.48-10.24-20.48-20.48 0-11.947 10.24-20.48 20.48-20.48 11.947 0 20.48 10.24 20.48 20.48 0 11.947-8.533 20.48-20.48 20.48zM457.728 224.768h-37.888l-17.067-29.355-18.773 29.355h-37.888l34.475-51.541-36.181-56.661h37.888l20.48 32.768 20.48-32.768h37.888l-37.888 56.661 34.475 51.541zM610.987 228.181c-17.067 0-31.061-10.24-37.888-18.773-5.12 11.947-15.36 18.773-31.061 18.773-17.067 0-31.061-10.24-36.181-15.36v13.653h-34.475v-108.203h34.475v70.315c3.413 5.12 10.24 10.24 18.773 10.24 10.24 0 13.653-6.827 13.653-13.653v-65.195h34.475v70.315c3.413 5.12 10.24 10.24 18.773 10.24 10.24 0 13.653-6.827 13.653-13.653v-65.195h34.475v77.141c2.389 19.115-9.899 29.355-28.672 29.355zM702.123 266.069h-34.475v-149.504h34.475v149.504z" />
<glyph unicode="&#xe90b;" glyph-name="notification" d="M880.64 232.619c-27.989 18.773-73.387 80.213-73.387 279.211 0 187.051-113.664 261.461-196.949 292.523 1.024 6.827 2.389 14.336 2.389 21.163 0 55.637-44.373 100.011-100.352 100.011-55.637 0-100.352-44.373-100.352-100.011 0-6.827 1.024-14.336 2.389-21.163-83.968-28.672-197.291-104.448-197.291-291.157 0-200.363-45.739-261.461-73.387-279.211-23.211-15.701-36.864-42.325-36.864-68.949 0-46.763 37.888-83.285 83.627-83.285h186.027c13.312-64.512 69.973-111.275 135.851-111.275 65.536 0 122.539 46.763 135.851 110.251h186.027c45.739 0 83.627 37.888 83.627 83.285-0.683 27.648-13.995 53.248-37.205 68.608zM512 882.517c31.061 0 55.637-24.576 55.637-55.637 0-3.413 0-5.461-1.024-8.875-45.739 9.899-88.064 4.437-110.251 0 0 3.413-1.024 5.461-1.024 8.875 1.024 31.061 25.6 55.637 56.661 55.637zM261.461 511.829c0 170.325 103.424 234.837 191.488 259.072h1.024c0 0 24.576 7.851 59.051 7.851 17.749 0 36.864-2.389 58.027-8.875h1.024c86.699-24.576 191.488-89.088 191.488-258.048 0-129.024 17.749-221.525 54.613-275.797h-611.328c35.84 55.637 54.613 148.139 54.613 275.797zM512 14.507c-41.301 0-77.824 27.648-90.112 65.536h180.224c-12.288-37.547-48.811-65.536-90.112-65.536zM833.877 124.757h-643.755c-21.163 0-38.912 17.749-38.912 38.912 0 11.264 4.437 21.163 13.312 29.013h697.003c6.827-7.851 11.264-17.749 11.264-29.013 0-21.163-17.749-38.912-38.912-38.912zM422.912 699.904c-3.413-2.389-88.064-51.2-100.352-138.923-1.024-9.899 6.827-21.163 18.773-23.211h3.413c11.264 0 20.139 7.851 22.187 18.773 8.875 65.536 76.8 105.813 77.824 105.813 11.264 5.461 14.336 20.139 7.851 30.037-5.12 10.923-19.797 14.336-29.696 7.509z" />
<glyph unicode="&#xe90c;" glyph-name="danger" d="M509.611 272.213c44.715 0 81.237 36.523 81.237 81.237v467.285c0 44.715-36.523 81.237-81.237 81.237s-81.237-36.523-81.237-81.237v-467.285c0-44.715 36.523-81.237 81.237-81.237zM512 197.12c-55.979 0-101.717-45.397-101.717-101.717 0-55.979 45.397-101.717 101.717-101.717s101.717 45.397 101.717 101.717c0 56.32-45.739 101.717-101.717 101.717z" />
<glyph unicode="&#xe90d;" glyph-name="success" d="M980.651 799.915c-11.264 12.971-27.648 18.432-44.373 18.432s-31.403-5.461-44.373-18.432l-574.464-574.123-185.003 185.003c-11.264 12.971-27.648 18.432-44.373 18.432s-31.403-5.461-44.373-18.432c-24.235-24.235-24.235-64.853 0-88.747l225.963-225.963c12.971-12.971 31.403-18.432 48.128-18.432 18.432 0 35.157 5.461 48.128 18.432l614.741 614.741c23.893 24.235 23.893 64.853 0 89.088z" />
<glyph unicode="&#xe90e;" glyph-name="unavailable" d="M913.067 516.267h-798.72c-36.864 0-66.56-29.696-66.56-66.56s29.696-66.56 66.56-66.56h798.72c36.864 0 66.56 29.696 66.56 66.56s-29.696 66.56-66.56 66.56z" />
<glyph unicode="&#xe90f;" glyph-name="copy" d="M375.125 122.368h-257.024v719.872h582.315v-119.808c0-9.557 7.509-17.067 17.067-17.067s17.067 7.509 17.067 17.067v136.875c0 9.557-7.509 17.067-17.067 17.067h-616.448c-9.557 0-17.067-7.509-17.067-17.067v-754.005c0-9.557 7.509-17.067 17.067-17.067h274.091c9.557 0 17.067 7.509 17.067 17.067s-7.851 17.067-17.067 17.067zM237.909 739.157c-9.557 0-17.067-7.509-17.067-17.067s7.509-17.067 17.067-17.067h342.357c9.557 0 17.067 7.509 17.067 17.067s-7.509 17.067-17.067 17.067h-342.357zM938.667 454.485c-1.024 2.048-2.048 4.096-3.755 5.461l-136.875 137.216c-1.707 1.707-3.413 2.731-5.461 3.755s-4.437 1.365-6.485 1.365h-274.091c-9.557 0-17.067-7.509-17.067-17.067v-548.181c0-9.557 7.509-17.067 17.067-17.067h410.965c9.557 0 17.067 7.509 17.067 17.067v410.965c0 2.389-0.341 4.437-1.365 6.485zM803.157 543.573l78.507-78.507h-78.507v78.507zM905.899 53.76h-376.832v514.048h239.616v-119.808c0-9.557 7.509-17.067 17.067-17.067h119.808v-377.173z" />
<glyph unicode="&#xe910;" glyph-name="cancel" d="M585.728 449.024l362.837 362.837c21.163 20.48 21.845 54.272 1.365 75.435-10.581 10.923-25.259 16.725-40.619 16.384-13.653-0.341-26.965-6.144-36.523-15.701l-361.813-361.813-362.837 361.472c-10.24 10.24-23.893 16.043-38.229 15.701-2.048 0-3.755 0-5.803 0-29.355-2.731-50.859-29.013-47.787-58.368 1.365-12.629 7.168-24.576 16.384-33.451l361.813-362.837-361.813-361.813c-20.821-20.821-20.821-54.955 0-75.776s54.955-20.821 75.776 0l362.837 362.837 361.813-362.837c20.821-20.821 54.955-20.821 75.776 0s20.821 54.955 0 75.776l-363.179 362.155z" />
<glyph unicode="&#xe911;" glyph-name="happy" d="M369.664 551.083c25.941 0 47.445 22.187 47.445 48.811s-21.504 48.811-47.445 48.811-47.445-22.187-47.445-48.811 21.504-48.811 47.445-48.811zM654.336 551.083c25.941 0 47.445 22.187 47.445 48.811s-21.504 48.811-47.445 48.811-47.445-22.187-47.445-48.811 21.504-48.811 47.445-48.811zM704.853 367.445c-9.557-0.341-17.749-6.827-23.211-15.019-38.229-59.051-104.107-88.747-169.643-88.747s-131.413 29.696-169.643 88.405c-5.12 8.192-13.653 14.677-23.211 15.019-20.821 1.024-37.547-21.845-22.187-45.739 48.811-76.459 132.096-114.347 215.040-114.347 82.603 0 166.229 37.547 215.040 114.347 15.019 23.893-1.365 46.763-22.187 46.080zM512 949.76c-276.821 0-501.76-224.939-501.76-501.76s224.939-501.76 501.76-501.76c276.821 0 501.76 224.939 501.76 501.76s-224.939 501.76-501.76 501.76zM512 16.555c-237.909 0-431.445 193.536-431.445 431.445s193.536 431.445 431.445 431.445c237.909 0 431.445-193.536 431.445-431.445s-193.536-431.445-431.445-431.445z" />
<glyph unicode="&#xe912;" glyph-name="sad" d="M369.664 551.083c25.941 0 47.445 22.187 47.445 48.811s-21.504 48.811-47.445 48.811c-25.941 0-47.445-22.187-47.445-48.811s21.504-48.811 47.445-48.811zM654.336 551.083c25.941 0 47.445 22.187 47.445 48.811s-21.504 48.811-47.445 48.811c-25.941 0-47.445-22.187-47.445-48.811s21.504-48.811 47.445-48.811zM512 365.739c-83.285 0-166.912-36.864-216.064-111.616-15.36-23.552 1.365-45.739 22.187-44.715 9.557 0.341 18.091 6.827 23.211 14.677 38.229 57.685 104.448 86.357 170.667 86.357s132.437-29.013 170.667-86.357c5.12-7.851 13.653-14.336 23.211-14.677 21.163-0.683 37.547 21.504 22.187 44.715-49.152 74.752-132.779 111.616-216.064 111.616zM512 949.76c-276.821 0-501.76-224.939-501.76-501.76s224.939-501.76 501.76-501.76c276.821 0 501.76 224.939 501.76 501.76s-224.939 501.76-501.76 501.76zM512 16.555c-237.909 0-431.445 193.536-431.445 431.445s193.536 431.445 431.445 431.445c237.909 0 431.445-193.536 431.445-431.445s-193.536-431.445-431.445-431.445z" />
<glyph unicode="&#xe913;" glyph-name="arrowRight" d="M933.205 448.341c0 6.144-3.755 14.677-7.509 18.773l-216.405 230.741c-10.24 10.581-26.624 11.605-38.229 1.024-10.581-9.557-10.923-27.989-1.024-38.229l173.739-185.003h-722.603c-15.019 0-26.965-12.288-26.965-26.965 0-15.019 12.288-27.307 26.965-27.307h722.261l-173.739-185.003c-9.899-10.24-9.216-28.331 1.024-38.229 10.581-10.581 28.331-9.557 38.229 1.024l216.405 230.741c6.485 5.803 7.509 11.947 7.851 18.432z" />
<glyph unicode="&#xe914;" glyph-name="key" d="M871.765 811.179c-34.816 35.157-81.237 54.613-130.731 54.613s-95.573-19.456-130.731-54.613c-66.219-66.56-71.339-171.691-16.043-244.736-0.341-0.341-1.024-0.683-1.707-1.024l-486.741-491.52c-9.899-9.899-9.899-25.941 0-35.84 4.779-4.779 11.264-7.509 17.749-7.509s12.971 2.389 17.749 7.509l92.843 93.867 57.685-58.027c4.779-4.779 11.264-7.509 17.749-7.509s12.971 2.389 17.749 7.509c9.899 9.899 9.899 25.941 0 35.84l-57.685 58.027 31.061 31.403 112.981-114.005c4.779-4.779 11.264-7.509 17.749-7.509s12.971 2.389 17.749 7.509c9.899 9.899 9.899 25.941 0 35.84l-112.981 114.005 292.181 294.912c0.341 0.341 0.683 1.024 1.024 1.707 32.085-24.576 70.997-38.229 111.957-38.229 49.493 0 95.915 19.456 130.731 54.613s54.272 81.92 54.272 131.755c-0.341 49.493-19.456 96.256-54.613 131.413zM836.608 583.509c-25.259-25.6-59.392-39.936-95.232-39.936s-69.632 13.995-95.232 39.936c-52.565 52.907-52.565 139.264 0 192.171 25.6 25.6 59.392 39.936 95.232 39.936s69.632-13.995 95.232-39.936c25.6-25.6 39.595-59.733 39.595-95.915s-14.336-70.656-39.595-96.256z" />
<glyph unicode="&#xe915;" glyph-name="user" d="M944.469 20.992c-13.653 199.339-204.8 356.011-433.835 356.011s-420.181-156.331-433.835-357.035c-1.024-12.629 8.533-24.235 22.187-25.259 1.024 0 1.024 0 2.048 0 11.605 0 22.187 9.557 23.211 22.187 11.605 175.445 181.589 313.003 386.389 313.003 203.776 0 373.419-136.533 386.389-311.979 1.024-12.629 11.605-23.211 25.6-22.187 12.288 1.365 22.869 11.605 21.845 25.259zM510.293 425.472c133.803 0 242.005 107.179 242.005 239.275s-108.203 239.275-242.005 239.275c-133.803 0-242.005-107.179-242.005-239.275s108.203-239.275 242.005-239.275zM510.293 855.893c106.155 0 193.195-86.016 193.195-191.147s-87.040-191.147-193.195-191.147c-106.155 0-193.195 86.016-193.195 191.147s87.040 191.147 193.195 191.147z" />
</font>
</defs>
</svg>
